<svg width="32" height="14" viewBox="0 0 32 14" fill="none" xmlns="http://www.w3.org/2000/svg">
<rect width="32" height="14" fill="#FFCE00"/>
<path d="M6.83 10.5V3.96H8.92C9.37333 3.96 9.77333 4.01 10.12 4.11C10.4733 4.21 10.75 4.38 10.95 4.62C11.1567 4.85333 11.26 5.17 11.26 5.57C11.26 5.87667 11.18 6.16667 11.02 6.44C10.86 6.70667 10.6367 6.89 10.35 6.99V7.03C10.71 7.11 11.0067 7.28 11.24 7.54C11.48 7.79333 11.6 8.14 11.6 8.58C11.6 9.01333 11.49 9.37333 11.27 9.66C11.0567 9.94667 10.76 10.16 10.38 10.3C10 10.4333 9.57 10.5 9.09 10.5H6.83ZM7.99 6.66H8.82C9.27333 6.66 9.60333 6.57667 9.81 6.41C10.0167 6.24333 10.12 6.02 10.12 5.74C10.12 5.42 10.0133 5.19333 9.8 5.06C9.58667 4.92667 9.26667 4.86 8.84 4.86H7.99V6.66ZM7.99 9.6H8.97C9.45 9.6 9.82 9.51333 10.08 9.34C10.34 9.16 10.47 8.88667 10.47 8.52C10.47 8.17333 10.3433 7.92333 10.09 7.77C9.83667 7.61 9.46333 7.53 8.97 7.53H7.99V9.6ZM14.6868 10.62C14.2335 10.62 13.8235 10.52 13.4568 10.32C13.0901 10.1133 12.8001 9.82 12.5868 9.44C12.3735 9.05333 12.2668 8.59 12.2668 8.05C12.2668 7.51667 12.3735 7.05667 12.5868 6.67C12.8068 6.28333 13.0901 5.98667 13.4368 5.78C13.7835 5.57333 14.1468 5.47 14.5268 5.47C14.9735 5.47 15.3468 5.57 15.6468 5.77C15.9468 5.96333 16.1735 6.23667 16.3268 6.59C16.4801 6.93667 16.5568 7.34 16.5568 7.8C16.5568 8.04 16.5401 8.22667 16.5068 8.36H13.3868C13.4401 8.79333 13.5968 9.13 13.8568 9.37C14.1168 9.61 14.4435 9.73 14.8368 9.73C15.0501 9.73 15.2468 9.7 15.4268 9.64C15.6135 9.57333 15.7968 9.48333 15.9768 9.37L16.3668 10.09C16.1335 10.2433 15.8735 10.37 15.5868 10.47C15.3001 10.57 15.0001 10.62 14.6868 10.62ZM13.3768 7.58H15.5568C15.5568 7.2 15.4735 6.90333 15.3068 6.69C15.1401 6.47 14.8901 6.36 14.5568 6.36C14.2701 6.36 14.0135 6.46667 13.7868 6.68C13.5668 6.88667 13.4301 7.18667 13.3768 7.58ZM19.1775 10.62C18.6108 10.62 18.2075 10.4567 17.9675 10.13C17.7342 9.79667 17.6175 9.36667 17.6175 8.84V6.5H16.9175V5.64L17.6775 5.59L17.8175 4.25H18.7775V5.59H20.0275V6.5H18.7775V8.84C18.7775 9.41333 19.0075 9.7 19.4675 9.7C19.5542 9.7 19.6442 9.69 19.7375 9.67C19.8308 9.64333 19.9108 9.61667 19.9775 9.59L20.1775 10.44C20.0442 10.4867 19.8908 10.5267 19.7175 10.56C19.5508 10.6 19.3708 10.62 19.1775 10.62ZM21.9259 10.62C21.4993 10.62 21.1493 10.4867 20.8759 10.22C20.6093 9.95333 20.4759 9.60667 20.4759 9.18C20.4759 8.65333 20.7059 8.24667 21.1659 7.96C21.6259 7.66667 22.3593 7.46667 23.3659 7.36C23.3593 7.1 23.2893 6.87667 23.1559 6.69C23.0293 6.49667 22.7993 6.4 22.4659 6.4C22.2259 6.4 21.9893 6.44667 21.7559 6.54C21.5293 6.63333 21.3059 6.74667 21.0859 6.88L20.6659 6.11C20.9393 5.93667 21.2459 5.78667 21.5859 5.66C21.9326 5.53333 22.2993 5.47 22.6859 5.47C23.2993 5.47 23.7559 5.65333 24.0559 6.02C24.3626 6.38 24.5159 6.90333 24.5159 7.59V10.5H23.5659L23.4859 9.96H23.4459C23.2259 10.1467 22.9893 10.3033 22.7359 10.43C22.4893 10.5567 22.2193 10.62 21.9259 10.62ZM22.2959 9.72C22.4959 9.72 22.6759 9.67333 22.8359 9.58C23.0026 9.48 23.1793 9.34667 23.3659 9.18V8.08C22.6993 8.16667 22.2359 8.29667 21.9759 8.47C21.7159 8.63667 21.5859 8.84333 21.5859 9.09C21.5859 9.31 21.6526 9.47 21.7859 9.57C21.9193 9.67 22.0893 9.72 22.2959 9.72Z" fill="#303030"/>
</svg>
