<svg width="25" height="23" viewBox="0 0 25 23" fill="none" xmlns="http://www.w3.org/2000/svg">
<path d="M0.748694 0C0.550131 0 0.359697 0.0791674 0.219289 0.220086C0.0788806 0.361005 0 0.552131 0 0.751417C0 0.950708 0.0788806 1.14184 0.219289 1.28275C0.359697 1.42367 0.550131 1.50284 0.748694 1.50284H23.2097C23.4082 1.50284 23.5986 1.42367 23.739 1.28275C23.8794 1.14184 23.9583 0.950708 23.9583 0.751417C23.9583 0.552131 23.8794 0.361005 23.739 0.220086C23.5986 0.0791674 23.4082 0 23.2097 0H0.748694Z" fill="#303030"/>
<path d="M0.617925 6.57135C0.454041 6.57135 0.296869 6.65051 0.180986 6.79143C0.0651027 6.93235 0 7.12351 0 7.32277C0 7.52204 0.0651027 7.71322 0.180986 7.85407C0.296869 7.995 0.454041 8.07418 0.617925 8.07418H11.7406C11.9044 8.07418 12.0616 7.995 12.1775 7.85407C12.2934 7.71322 12.3585 7.52204 12.3585 7.32277C12.3585 7.12351 12.2934 6.93235 12.1775 6.79143C12.0616 6.65051 11.9044 6.57135 11.7406 6.57135H0.617925Z" fill="#303030"/>
<path d="M0.748701 13.1424H10.2976L8.80021 14.6453H0.748701C0.550131 14.6453 0.359697 14.5661 0.219289 14.4252C0.0788805 14.2842 0 14.0931 0 13.8938C0 13.6945 0.0788805 13.5034 0.219289 13.3625C0.359697 13.2216 0.550131 13.1424 0.748701 13.1424Z" fill="#303030"/>
<path d="M17.6233 3.1355C17.8469 3.13562 18.0626 3.21776 18.2301 3.36647C18.3975 3.51518 18.5049 3.72018 18.5322 3.94287L18.7118 5.39763C18.8366 6.41545 19.2968 7.36221 20.0193 8.08734C20.7418 8.81247 21.6851 9.27435 22.6992 9.3996L24.1487 9.57983C24.3699 9.60806 24.5733 9.7163 24.7206 9.8842C24.868 10.0522 24.9493 10.2682 24.9493 10.492C24.9493 10.7158 24.868 10.9319 24.7206 11.0999C24.5733 11.2678 24.3699 11.376 24.1487 11.4042L22.6992 11.5845C21.6851 11.7097 20.7418 12.1716 20.0193 12.8967C19.2968 13.6219 18.8366 14.5686 18.7118 15.5865L18.5322 17.0412C18.5041 17.2632 18.3962 17.4672 18.2289 17.6151C18.0616 17.7631 17.8462 17.8446 17.6233 17.8446C17.4003 17.8446 17.185 17.7631 17.0177 17.6151C16.8504 17.4672 16.7426 17.2632 16.7144 17.0412L16.5348 15.5865C16.4101 14.5686 15.9498 13.6219 15.2273 12.8967C14.5048 12.1716 13.5615 11.7097 12.5474 11.5845L11.0978 11.4042C10.8767 11.376 10.6733 11.2678 10.526 11.0999C10.3786 10.9319 10.2973 10.7158 10.2973 10.492C10.2973 10.2682 10.3786 10.0522 10.526 9.8842C10.6733 9.7163 10.8767 9.60806 11.0978 9.57983L12.5474 9.3996C13.5615 9.27435 14.5048 8.81247 15.2273 8.08734C15.9498 7.36221 16.4101 6.41545 16.5348 5.39763L16.7144 3.94287C16.7417 3.72018 16.8492 3.51518 17.0165 3.36647C17.184 3.21776 17.3997 3.13562 17.6233 3.1355ZM17.6233 7.91171C17.0317 9.00225 16.139 9.89828 15.0524 10.492C16.139 11.0842 17.0314 11.9817 17.6233 13.0723C18.2133 11.9817 19.1076 11.0861 20.1942 10.492C19.1076 9.89828 18.2149 9.00225 17.6233 7.91171Z" fill="#303030"/>
<path d="M13.8197 14.8795C13.9678 15.0281 14.0509 15.2296 14.0509 15.4397C14.0509 15.6498 13.9678 15.8513 13.8197 15.9999L7.50333 22.333C7.35333 22.4713 7.15583 22.5462 6.95208 22.5418C6.74842 22.5374 6.5543 22.4542 6.41033 22.3095C6.26637 22.1648 6.1837 21.9699 6.17963 21.7655C6.17556 21.561 6.25038 21.3629 6.38847 21.2126L12.7033 14.8779C12.8514 14.7293 13.0522 14.6458 13.2615 14.6458C13.4709 14.6458 13.6717 14.7293 13.8197 14.8779V14.8795Z" fill="#303030"/>
</svg>
