<svg width="29" height="23" viewBox="0 0 29 23" fill="none" xmlns="http://www.w3.org/2000/svg">
<g clip-path="url(#clip0_36_641)">
<path d="M18.5279 9.78942C18.5147 9.68152 18.4625 9.58218 18.3813 9.51012C18.3 9.43806 18.1952 9.39825 18.0867 9.39819H18.0866L17.6454 9.78936V9.78942L17.5705 10.3953V10.3953C17.5201 10.8054 17.3344 11.1868 17.0427 11.479C16.7511 11.7711 16.3704 11.9572 15.961 12.0077V12.0077L15.3562 12.0827L15.356 12.0828C15.2486 12.0964 15.15 12.1488 15.0783 12.2303C15.0068 12.3117 14.9674 12.4164 14.9674 12.5248C14.9674 12.6332 15.0068 12.7379 15.0783 12.8194C15.15 12.9007 15.2486 12.9531 15.356 12.9668H15.3562L15.961 13.0419C16.3704 13.0923 16.7511 13.2785 17.0427 13.5706C17.3344 13.8627 17.5201 14.2441 17.5705 14.6543L17.6454 15.2601V15.2604C17.6591 15.368 17.7114 15.4669 17.7927 15.5386C17.8739 15.6102 17.9784 15.6497 18.0867 15.6497C18.1948 15.6497 18.2994 15.6102 18.3807 15.5386C18.4619 15.4669 18.5142 15.368 18.5279 15.2604V15.2601L18.6028 14.6543H18.6029C18.6532 14.2441 18.839 13.8627 19.1306 13.5706C19.4221 13.2785 19.8029 13.0923 20.2123 13.0419L20.8172 12.9668H20.8173C20.9247 12.9531 21.0234 12.9007 21.095 12.8194C21.1665 12.7379 21.2059 12.6332 21.2059 12.5248C21.2059 12.4164 21.1665 12.3117 21.095 12.2303C21.0234 12.1488 20.9247 12.0964 20.8173 12.0828L20.8172 12.0827L20.2123 12.0077V12.0077C19.8029 11.9572 19.4221 11.7711 19.1306 11.479C18.839 11.1868 18.6532 10.8054 18.6029 10.3953L18.6028 10.3953L18.5279 9.78942ZM18.5279 9.78942L18.4659 9.79706ZM18.5279 9.78942V9.78936L18.4659 9.79706M18.4659 9.79706L18.5408 10.403ZM18.4659 9.79706C18.4545 9.70431 18.4097 9.61892 18.3398 9.55699C18.27 9.49505 18.18 9.46084 18.0867 9.46079L18.5408 10.403M18.5408 10.403C18.5929 10.8269 18.7849 11.2212 19.0864 11.5232C19.3878 11.8252 19.7815 12.0176 20.2047 12.0698L18.5408 10.403ZM19.0334 12.5248C18.6445 12.7577 18.3187 13.0835 18.0866 13.4732C17.854 13.0836 17.5289 12.7573 17.14 12.5247C17.5288 12.2917 17.8541 11.9659 18.0867 11.5763C18.3192 11.9659 18.6445 12.2918 19.0334 12.5248Z" fill="#303030"/>
<path d="M18.5279 9.78942L18.4659 9.79706M18.5279 9.78942V9.78936L18.4659 9.79706M18.4659 9.79706L18.5408 10.403M18.4659 9.79706C18.4545 9.70431 18.4097 9.61892 18.3398 9.55699C18.27 9.49505 18.18 9.46084 18.0867 9.46079L18.5408 10.403M18.5279 9.78942C18.5147 9.68152 18.4625 9.58218 18.3813 9.51012C18.3 9.43806 18.1952 9.39825 18.0867 9.39819H18.0866L17.6454 9.78936V9.78942L17.5705 10.3953V10.3953C17.5201 10.8054 17.3344 11.1868 17.0427 11.479C16.7511 11.7711 16.3704 11.9572 15.961 12.0077V12.0077L15.3562 12.0827L15.356 12.0828C15.2486 12.0964 15.15 12.1488 15.0783 12.2303C15.0068 12.3117 14.9674 12.4164 14.9674 12.5248C14.9674 12.6332 15.0068 12.7379 15.0783 12.8194C15.15 12.9007 15.2486 12.9531 15.356 12.9668H15.3562L15.961 13.0419C16.3704 13.0923 16.7511 13.2785 17.0427 13.5706C17.3344 13.8627 17.5201 14.2441 17.5705 14.6543L17.6454 15.2601V15.2604C17.6591 15.368 17.7114 15.4669 17.7927 15.5386C17.8739 15.6102 17.9784 15.6497 18.0867 15.6497C18.1948 15.6497 18.2994 15.6102 18.3807 15.5386C18.4619 15.4669 18.5142 15.368 18.5279 15.2604V15.2601L18.6028 14.6543H18.6029C18.6532 14.2441 18.839 13.8627 19.1306 13.5706C19.4221 13.2785 19.8029 13.0923 20.2123 13.0419L20.8172 12.9668H20.8173C20.9247 12.9531 21.0234 12.9007 21.095 12.8194C21.1665 12.7379 21.2059 12.6332 21.2059 12.5248C21.2059 12.4164 21.1665 12.3117 21.095 12.2303C21.0234 12.1488 20.9247 12.0964 20.8173 12.0828L20.8172 12.0827L20.2123 12.0077V12.0077C19.8029 11.9572 19.4221 11.7711 19.1306 11.479C18.839 11.1868 18.6532 10.8054 18.6029 10.3953L18.6028 10.3953L18.5279 9.78942ZM18.5408 10.403C18.5929 10.8269 18.7849 11.2212 19.0864 11.5232C19.3878 11.8252 19.7815 12.0176 20.2047 12.0698L18.5408 10.403ZM19.0334 12.5248C18.6445 12.7577 18.3187 13.0835 18.0866 13.4732C17.854 13.0836 17.5289 12.7573 17.14 12.5247C17.5288 12.2917 17.8541 11.9659 18.0867 11.5763C18.3192 11.9659 18.6445 12.2918 19.0334 12.5248Z" stroke="#303030" stroke-width="0.209195"/>
<path fill-rule="evenodd" clip-rule="evenodd" d="M25.1046 18.5315H1.99095C1.55844 18.5315 1.20833 18.2339 1.20833 17.8668V1.87525C1.20833 1.5084 1.55844 1.21054 1.99095 1.21054H25.1046C25.5367 1.21054 25.8867 1.5084 25.8867 1.87525V17.8668C25.8867 18.2339 25.5367 18.5315 25.1046 18.5315Z" stroke="#303030" stroke-width="1.82724"/>
<path fill-rule="evenodd" clip-rule="evenodd" d="M22.5952 22.0562L27.6925 16.9498L19.9817 14.3322L22.5952 22.0562Z" fill="white"/>
<path fill-rule="evenodd" clip-rule="evenodd" d="M22.8544 21.2502L26.8876 17.2097L20.7862 15.1371L22.8544 21.2502Z" stroke="#303030" stroke-width="1.82724" stroke-linejoin="round"/>
<path d="M25.1437 19.5031L27.7915 22.1552" stroke="#303030" stroke-width="1.82724" stroke-linecap="round" stroke-linejoin="round"/>
</g>
<defs>
<clipPath id="clip0_36_641">
<rect width="29" height="23" fill="white"/>
</clipPath>
</defs>
</svg>
