<svg width="8" height="5" viewBox="0 0 8 5" fill="none" xmlns="http://www.w3.org/2000/svg">
<path d="M0.161952 0.9665L4.00167 4.96551L7.84138 0.966501C7.94569 0.857504 8.00271 0.711264 7.9999 0.55995C7.99709 0.408637 7.93467 0.264646 7.82638 0.159653C7.71809 0.0546603 7.5728 -0.00273343 7.42247 9.77879e-05C7.27214 0.002929 7.12909 0.0657532 7.02478 0.17475L4.00167 3.32498L0.975225 0.174749C0.870914 0.0657527 0.727858 0.00292843 0.577528 9.71895e-05C0.427197 -0.00273405 0.281906 0.0546596 0.173618 0.159652C0.0653289 0.264645 0.00291269 0.408636 9.98423e-05 0.55995C-0.00271301 0.711263 0.0543079 0.857503 0.158619 0.9665L0.161952 0.9665Z" fill="black"/>
</svg>
