<svg width="32" height="14" viewBox="0 0 32 14" fill="none" xmlns="http://www.w3.org/2000/svg">
<rect width="32" height="14" fill="#65CB81"/>
<path d="M7.33 10.5V3.96H8.52L10.56 7.64L11.23 9.03H11.27C11.2433 8.69667 11.21 8.33333 11.17 7.94C11.1367 7.54667 11.12 7.16667 11.12 6.8V3.96H12.23V10.5H11.04L9 6.82L8.33 5.43H8.29C8.31667 5.77667 8.34667 6.14 8.38 6.52C8.42 6.9 8.44 7.27333 8.44 7.64V10.5H7.33ZM15.7825 10.62C15.3292 10.62 14.9192 10.52 14.5525 10.32C14.1858 10.1133 13.8958 9.82 13.6825 9.44C13.4692 9.05333 13.3625 8.59 13.3625 8.05C13.3625 7.51667 13.4692 7.05667 13.6825 6.67C13.9025 6.28333 14.1858 5.98667 14.5325 5.78C14.8792 5.57333 15.2425 5.47 15.6225 5.47C16.0692 5.47 16.4425 5.57 16.7425 5.77C17.0425 5.96333 17.2692 6.23667 17.4225 6.59C17.5758 6.93667 17.6525 7.34 17.6525 7.8C17.6525 8.04 17.6358 8.22667 17.6025 8.36H14.4825C14.5358 8.79333 14.6925 9.13 14.9525 9.37C15.2125 9.61 15.5392 9.73 15.9325 9.73C16.1458 9.73 16.3425 9.7 16.5225 9.64C16.7092 9.57333 16.8925 9.48333 17.0725 9.37L17.4625 10.09C17.2292 10.2433 16.9692 10.37 16.6825 10.47C16.3958 10.57 16.0958 10.62 15.7825 10.62ZM14.4725 7.58H16.6525C16.6525 7.2 16.5692 6.90333 16.4025 6.69C16.2358 6.47 15.9858 6.36 15.6525 6.36C15.3658 6.36 15.1092 6.46667 14.8825 6.68C14.6625 6.88667 14.5258 7.18667 14.4725 7.58ZM19.4509 10.5L18.1509 5.59H19.3109L19.9009 8.14C19.9542 8.37333 19.9975 8.60667 20.0309 8.84C20.0709 9.07333 20.1142 9.31 20.1609 9.55H20.2009C20.2475 9.31 20.2942 9.07333 20.3409 8.84C20.3942 8.6 20.4509 8.36667 20.5109 8.14L21.1509 5.59H22.2009L22.8509 8.14C22.9109 8.37333 22.9675 8.60667 23.0209 8.84C23.0742 9.07333 23.1275 9.31 23.1809 9.55H23.2209C23.2675 9.31 23.3109 9.07333 23.3509 8.84C23.3909 8.60667 23.4342 8.37333 23.4809 8.14L24.0709 5.59H25.1509L23.9009 10.5H22.5309L21.9609 8.21C21.9075 7.97667 21.8575 7.74667 21.8109 7.52C21.7642 7.28667 21.7142 7.04 21.6609 6.78H21.6209C21.5742 7.04 21.5275 7.28667 21.4809 7.52C21.4342 7.75333 21.3842 7.98667 21.3309 8.22L20.7709 10.5H19.4509Z" fill="#303030"/>
</svg>
