<svg width="28" height="32" viewBox="0 0 28 32" fill="none" xmlns="http://www.w3.org/2000/svg">
<path d="M20.0356 7.71338L19.9399 8.36322H20.6101H24.9613V12.7549C24.7716 12.7283 24.5778 12.7145 24.3809 12.7145C22.1368 12.7145 20.3175 14.4967 20.3175 16.6951C20.3175 18.8935 22.1368 20.6756 24.3809 20.6756C24.5778 20.6756 24.7716 20.6619 24.9613 20.6352V25.027H20.6101H19.9399L20.0356 25.6769C20.0602 25.8439 20.073 26.0148 20.073 26.189C20.073 28.1643 18.4226 29.774 16.3761 29.774C14.3297 29.774 12.6793 28.1643 12.6793 26.189C12.6793 26.0148 12.6921 25.8439 12.7167 25.6769L12.8124 25.027H12.1422H7.79099V20.8066V20.1517L7.12898 20.2436C6.95633 20.2676 6.77955 20.2801 6.59943 20.2801C4.55294 20.2801 2.90262 18.6704 2.90262 16.6951C2.90262 14.7199 4.55294 13.1102 6.59943 13.1102C6.77955 13.1102 6.95633 13.1226 7.12898 13.1466L7.79099 13.2386V12.5836V8.36322H12.1422H12.8124L12.7167 7.71338C12.6921 7.54638 12.6793 7.37542 12.6793 7.20122C12.6793 5.22598 14.3297 3.61627 16.3761 3.61627C18.4226 3.61627 20.073 5.22598 20.073 7.20122C20.073 7.37542 20.0602 7.54638 20.0356 7.71338Z" stroke="#303030" stroke-width="2"/>
</svg>
