<svg width="554" height="135" viewBox="0 0 554 135" fill="none" xmlns="http://www.w3.org/2000/svg">
<path d="M523.7 91.3C531.4 91.3 539.2 88.7 544.9 84.2C545 84.1 545 84 544.9 84L539.3 77.2C539.2 77.1 539.1 77.1 539.1 77.2C534.4 80.5 529.3 82.2 523.9 82.2C515.8 82.2 510.9 78.4 509.7 71.3L509.6 70.5H546.1V68C546.1 54.6 535.3 43.6 522.1 43.5C522 43.5 521.9 43.5 521.8 43.5C514.6 43.5 508.2 45.9 503.7 50.4C499.4 54.7 497 60.8 497 67.4C497.1 81.9 507.5 91.3 523.7 91.3ZM510.6 61C512.3 55.7 516.3 52.8 521.8 52.8C527.3 52.8 531.2 55.7 533 61C533.2 61.5 533.1 62 532.8 62.4C532.5 62.8 532 63.1 531.5 63.1H512.2C511.7 63.1 511.2 62.8 510.9 62.4C510.5 62 510.4 61.5 510.6 61Z" fill="white"/>
<path d="M450.1 67.6C450.1 81.2 461.1 91.5 475.8 91.5C483 91.5 489.6 89 494.4 84.4V84.1L487.6 76.7C485 80 480.9 82 476.6 82C474.4 82 472.3 81.5 470.3 80.5C470.2 80.5 470.1 80.4 470 80.3L469.9 80.2L469.7 80.1C466.9 78.7 464.6 76.2 463.4 73.2C463.1 72.5 462.9 71.8 462.7 71C462.6 70.6 462.5 70.3 462.5 70L462.4 69.5C462.4 69.3 462.3 69 462.3 68.8C462.3 68.5 462.3 68.2 462.3 67.9C462.3 67.7 462.3 67.6 462.3 67.6C462.3 67.3 462.3 67 462.3 66.7V66.5C462.3 66.4 462.3 66.4 462.3 66.3C462.5 64.7 462.9 63 463.6 61.5C463.7 61.3 463.8 61 463.9 60.8C465.2 58.2 467.2 56.3 469.6 55C471.7 53.8 474.1 53.2 476.6 53.2C480.9 53.2 484.9 55.1 487.7 58.5L494.5 50.9C489.7 46.3 483 43.7 475.7 43.7C461.1 43.7 450.1 54 450.1 67.6Z" fill="white"/>
<path d="M443.3 89.3V66C442.9 55.4 440 45.6 422.3 45.6C418.6 45.6 415.3 46.1 412.5 47.2L411.5 47.6V45.8C411.5 45.7 411.4 45.7 411.4 45.7H401.5C401.4 45.7 401.4 45.8 401.4 45.8V89.3C401.4 89.4 401.5 89.5 401.6 89.5H413C413.1 89.5 413.2 89.4 413.2 89.3V64.8C413.2 63.4 413.4 62.1 413.7 60.9C415 57.5 418.5 55.1 422.4 55C426.2 55 429.8 57.4 431.1 60.8C431.5 62 431.6 63.3 431.6 64.7V89.2C431.6 89.3 431.7 89.4 431.8 89.4H443.2C443.2 89.5 443.3 89.4 443.3 89.3Z" fill="white"/>
<path d="M349.6 45.8V69.2C350 79.8 352.9 89.6 370.6 89.6C388.6 89.6 391.2 77.6 391.6 68.7V45.8C391.6 45.7 391.5 45.6 391.4 45.6H380C379.9 45.6 379.8 45.7 379.8 45.8V70.3C379.8 71.7 379.6 73 379.3 74.2C378 77.6 374.5 80 370.6 80.1C366.8 80.1 363.2 77.7 361.9 74.3C361.5 73.1 361.4 71.8 361.4 70.4V45.8C361.4 45.7 361.3 45.6 361.2 45.6H349.8C349.7 45.6 349.6 45.7 349.6 45.8Z" fill="white"/>
<path d="M316.5 43.5C301.9 43.5 290.8 53.8 290.8 67.4C290.8 81 301.8 91.3 316.5 91.3C331.2 91.3 342.3 81 342.3 67.4C342.3 53.7 331.2 43.5 316.5 43.5ZM316.5 81.4C308.9 81.4 303.1 75.4 303.1 67.4C303.1 59.5 309 53.4 316.5 53.4C324.1 53.4 330 59.6 330 67.4C330 75.2 324 81.4 316.5 81.4Z" fill="white"/>
<path d="M264 90.5C276.1 90.5 285.3 80.5 285.3 67.3C285.3 54.2 276 43.9 264 43.9C257.6 43.9 251.8 46.5 247.7 51.3L246.4 52.7V23.5C246.4 23.4 246.3 23.3 246.2 23.3H234.8C234.7 23.3 234.6 23.4 234.6 23.5V89.3C234.6 89.4 234.7 89.5 234.8 89.5H245.5C245.6 89.5 245.7 89.4 245.7 89.3V81.1L247 82.6C251.1 87.7 257.1 90.5 264 90.5ZM261.5 53.9C269.1 53.9 274.7 59.5 274.7 67.2C274.7 74.8 269 80.5 261.5 80.5C254 80.5 248.1 74.7 248.1 67.3C248.1 59.7 253.9 53.9 261.5 53.9Z" fill="white"/>
<path d="M225.4 89.5C225.5 89.5 225.6 89.4 225.6 89.3V66C225.2 55.4 222.3 45.6 204.6 45.6C200.9 45.6 197.6 46.1 194.8 47.2L193.8 47.6V45.8C193.8 45.7 193.7 45.7 193.6 45.7H183.7C183.6 45.7 183.6 45.8 183.6 45.8V89.3C183.6 89.4 183.7 89.5 183.8 89.5H195.2C195.3 89.5 195.4 89.4 195.4 89.3V64.8C195.4 63.4 195.6 62.1 195.9 60.9C197.2 57.5 200.7 55.1 204.6 55C208.4 55 212 57.4 213.3 60.8C213.7 62 213.8 63.3 213.8 64.7V89.2C213.8 89.3 213.9 89.4 214 89.4H225.4V89.5Z" fill="white"/>
<path d="M132.6 45.8V69.2C133 79.8 135.9 89.6 153.6 89.6C171.6 89.6 174.2 77.6 174.6 68.7V45.8C174.6 45.7 174.5 45.6 174.4 45.6H163C162.9 45.6 162.8 45.7 162.8 45.8V70.3C162.8 71.7 162.6 73 162.3 74.2C161 77.6 157.5 80 153.6 80.1C149.8 80.1 146.2 77.7 144.9 74.3C144.5 73.1 144.4 71.8 144.4 70.4V45.8C144.4 45.7 144.3 45.6 144.2 45.6H132.8C132.6 45.6 132.6 45.7 132.6 45.8Z" fill="white"/>
<path d="M60.8 14.3C31.4 14.3 7.59998 38.1 7.59998 67.5C7.59998 96.9 31.4 120.7 60.8 120.7C90.2 120.7 114 96.9 114 67.5C114 38.1 90.2 14.3 60.8 14.3ZM58.9 88.4L55 99.9C54.9 100.3 54.7 100.6 54.5 100.9C54 101.7 53.4 102.3 52.6 102.7C51.9 103.1 51.1 103.3 50.3 103.3C49.8 103.3 49.2 103.2 48.7 103C46.5 102.2 45.1 100 45.4 97.8C34.4 92.2 26.9 80.7 26.9 67.5C26.9 48.7 42.1 33.4 61 33.4C63.2 33.4 65.3 33.6 67.4 34C68.6 32.1 71 31.2 73.2 31.9C74.4 32.3 75.3 33.1 75.9 34.1C76.4 35 76.7 36 76.6 37.1C76.6 37.5 76.5 37.9 76.4 38.2L72.5 49.7L58.9 88.4ZM63.2 101.5L67.9 87.3C76 84.4 81.8 76.7 81.8 67.5C81.8 63.2 80.5 59.1 78.2 55.8L82.9 41.6C90.2 47.8 94.9 57.1 94.9 67.5C94.8 85.5 80.9 100.2 63.2 101.5Z" fill="white"/>
<path d="M39.8 67.5C39.8 74.9 43.7 81.4 49.5 85.2L62.7 46.6C62.1 46.5 61.4 46.5 60.8 46.5C49.2 46.5 39.8 55.9 39.8 67.5Z" fill="white"/>
</svg>
