<svg width="554" height="135" viewBox="0 0 554 135" fill="none" xmlns="http://www.w3.org/2000/svg">
<g clip-path="url(#clip0_27_734)">
<path d="M516.1 106C523.8 106 531.6 103.4 537.3 98.9C537.4 98.8 537.4 98.7 537.3 98.7L531.7 91.9C531.6 91.8 531.5 91.8 531.5 91.9C526.8 95.2 521.7 96.9 516.3 96.9C508.2 96.9 503.3 93.1 502.1 86L502 85.2H538.5V82.7C538.5 69.3 527.7 58.3 514.5 58.2C514.4 58.2 514.3 58.2 514.2 58.2C507 58.2 500.6 60.6 496.1 65.1C491.8 69.4 489.4 75.5 489.4 82.1C489.5 96.6 499.9 106 516.1 106ZM503 75.7C504.7 70.4 508.7 67.5 514.2 67.5C519.7 67.5 523.6 70.4 525.4 75.7C525.6 76.2 525.5 76.7 525.2 77.1C524.9 77.5 524.4 77.8 523.9 77.8H504.6C504.1 77.8 503.6 77.5 503.3 77.1C502.9 76.7 502.8 76.2 503 75.7Z" fill="#303030"/>
<path d="M442.5 82.3C442.5 95.9 453.5 106.2 468.2 106.2C475.4 106.2 482 103.7 486.8 99.1V98.8L480 91.4C477.4 94.7 473.3 96.7 469 96.7C466.8 96.7 464.7 96.2 462.7 95.2C462.6 95.2 462.5 95.1 462.4 95L462.3 94.9L462.1 94.8C459.3 93.4 457 90.9 455.8 87.9C455.5 87.2 455.3 86.5 455.1 85.7C455 85.3 454.9 85 454.9 84.7L454.8 84.2C454.8 84 454.7 83.7 454.7 83.5C454.7 83.2 454.7 82.9 454.7 82.6C454.7 82.4 454.7 82.3 454.7 82.3C454.7 82 454.7 81.7 454.7 81.4V81.2C454.7 81.1 454.7 81.1 454.7 81C454.9 79.4 455.3 77.7 456 76.2C456.1 76 456.2 75.7 456.3 75.5C457.6 72.9 459.6 71 462 69.7C464.1 68.5 466.5 67.9 469 67.9C473.3 67.9 477.3 69.8 480.1 73.2L486.9 65.6C482.1 61 475.4 58.4 468.1 58.4C453.5 58.4 442.5 68.7 442.5 82.3Z" fill="#303030"/>
<path d="M435.7 104V80.7C435.3 70.1 432.4 60.3 414.7 60.3C411 60.3 407.7 60.8 404.9 61.9L403.9 62.3V60.5C403.9 60.4 403.8 60.4 403.8 60.4H393.9C393.8 60.4 393.8 60.5 393.8 60.5V104C393.8 104.1 393.9 104.2 394 104.2H405.4C405.5 104.2 405.6 104.1 405.6 104V79.5C405.6 78.1 405.8 76.8 406.1 75.6C407.4 72.2 410.9 69.8 414.8 69.7C418.6 69.7 422.2 72.1 423.5 75.5C423.9 76.7 424 78 424 79.4V103.9C424 104 424.1 104.1 424.2 104.1L435.7 104C435.6 104.2 435.7 104.1 435.7 104Z" fill="#303030"/>
<path d="M342 60.5V83.9C342.4 94.5 345.3 104.3 363 104.3C381 104.3 383.6 92.3 384 83.4V60.5C384 60.4 383.9 60.3 383.8 60.3H372.4C372.3 60.3 372.2 60.4 372.2 60.5V85C372.2 86.4 372 87.7 371.7 88.9C370.4 92.3 366.9 94.7 363 94.8C359.2 94.8 355.6 92.4 354.3 89C353.9 87.8 353.8 86.5 353.8 85.1V60.5C353.8 60.4 353.7 60.3 353.6 60.3H342.2C342.1 60.3 342 60.4 342 60.5Z" fill="#303030"/>
<path d="M308.9 58.2C294.3 58.2 283.2 68.5 283.2 82.1C283.2 95.7 294.2 106 308.9 106C323.6 106 334.7 95.7 334.7 82.1C334.7 68.4 323.6 58.2 308.9 58.2ZM308.9 96.1C301.3 96.1 295.5 90.1 295.5 82.1C295.5 74.2 301.4 68.1 308.9 68.1C316.5 68.1 322.4 74.3 322.4 82.1C322.4 89.9 316.4 96.1 308.9 96.1Z" fill="#303030"/>
<path d="M256.4 105.2C268.5 105.2 277.7 95.2 277.7 82C277.7 68.9 268.4 58.6 256.4 58.6C250 58.6 244.2 61.2 240.1 66L238.8 67.4V38.2C238.8 38.1 238.7 38 238.6 38H227.2C227.1 38 227 38.1 227 38.2V104C227 104.1 227.1 104.2 227.2 104.2H237.9C238 104.2 238.1 104.1 238.1 104V95.8L239.4 97.3C243.5 102.4 249.5 105.2 256.4 105.2ZM253.9 68.6C261.5 68.6 267.1 74.2 267.1 81.9C267.1 89.5 261.4 95.2 253.9 95.2C246.4 95.2 240.5 89.4 240.5 82C240.5 74.4 246.3 68.6 253.9 68.6Z" fill="#303030"/>
<path d="M217.8 104.2C217.9 104.2 218 104.1 218 104V80.7C217.6 70.1 214.7 60.3 197 60.3C193.3 60.3 190 60.8 187.2 61.9L186.2 62.3V60.5C186.2 60.4 186.1 60.4 186 60.4H176.1C176 60.4 176 60.5 176 60.5V104C176 104.1 176.1 104.2 176.2 104.2H187.6C187.7 104.2 187.8 104.1 187.8 104V79.5C187.8 78.1 188 76.8 188.3 75.6C189.6 72.2 193.1 69.8 197 69.7C200.8 69.7 204.4 72.1 205.7 75.5C206.1 76.7 206.2 78 206.2 79.4V103.9C206.2 104 206.3 104.1 206.4 104.1H217.8V104.2Z" fill="#303030"/>
<path d="M125 60.5V83.9C125.4 94.5 128.3 104.3 146 104.3C164 104.3 166.6 92.3 167 83.4V60.5C167 60.4 166.9 60.3 166.8 60.3H155.4C155.3 60.3 155.2 60.4 155.2 60.5V85C155.2 86.4 155 87.7 154.7 88.9C153.4 92.3 149.9 94.7 146 94.8C142.2 94.8 138.6 92.4 137.3 89C136.9 87.8 136.8 86.5 136.8 85.1V60.5C136.8 60.4 136.7 60.3 136.6 60.3H125.2C125 60.3 125 60.4 125 60.5Z" fill="#303030"/>
<path d="M53.2 29C23.8 29 0 52.8 0 82.2C0 111.6 23.8 135.4 53.2 135.4C82.6 135.4 106.4 111.6 106.4 82.2C106.4 52.8 82.6 29 53.2 29ZM51.3 103.1L47.4 114.6C47.3 115 47.1 115.3 46.9 115.6C46.4 116.4 45.8 117 45 117.4C44.3 117.8 43.5 118 42.7 118C42.2 118 41.6 117.9 41.1 117.7C38.9 116.9 37.5 114.7 37.8 112.5C26.8 106.9 19.3 95.4 19.3 82.2C19.3 63.4 34.5 48.1 53.4 48.1C55.6 48.1 57.7 48.3 59.8 48.7C61 46.8 63.4 45.9 65.6 46.6C66.8 47 67.7 47.8 68.3 48.8C68.8 49.7 69.1 50.7 69 51.8C69 52.2 68.9 52.6 68.8 52.9L64.9 64.4L51.3 103.1ZM55.6 116.2L60.3 102C68.4 99.1 74.2 91.4 74.2 82.2C74.2 77.9 72.9 73.8 70.6 70.5L75.3 56.3C82.6 62.5 87.3 71.8 87.3 82.2C87.2 100.2 73.3 114.9 55.6 116.2Z" fill="#303030"/>
<path d="M32.2 82.2C32.2 89.6 36.1 96.1 41.9 99.9L55.1 61.3C54.5 61.2 53.8 61.2 53.2 61.2C41.6 61.2 32.2 70.6 32.2 82.2Z" fill="#303030"/>
</g>
<defs>
<clipPath id="clip0_27_734">
<rect width="553.7" height="135" fill="white"/>
</clipPath>
</defs>
</svg>
